<svg xmlns="http://www.w3.org/2000/svg" id="Layer_1" data-name="Layer 1" viewBox="0 0 910.1 909"><defs><style>.cls-1{fill:#010101}.cls-2{fill:#fff}</style></defs><path d="M0 454A454.5 454.5 0 0 1 456.4 0C708.2 1 910.6 204.2 910 455.4S705.4 909.8 454.5 908.9C202.5 908.1-.6 704.7 0 454.1Z" class="cls-1"/><path d="M173 488.7c35.7 0 71.4.2 107.1-.2 7.3 0 10.2 2 12 9.3a168 168 0 0 0 163 125.4 168.4 168.4 0 0 0 163.3-125.3c2-7.5 4.8-9.4 12-9.4q107.7.4 215.4 0c8 0 9.5 1.5 8.6 10A399 399 0 0 1 552 843.6c-136.2 32.5-259 1.9-364.6-90.7-72-63-113.6-143.6-129.4-237.7-4.4-26.5-4.5-26.5 22.7-26.5Z" class="cls-2"/><path d="M1073.7 695.8c-35 0-69.9-.2-104.8.2-8.4.1-11.7-2.7-14-10.6C935.3 616 874.5 565.8 806.3 562c-76.7-4.3-141.5 35.3-170.6 104.1a96 96 0 0 0-2.4 6.3c-8 23.4-8 23.4-33.4 23.4-64.6 0-129.3-.1-193.9.2-9.6 0-13.8-1-12.1-12.7 22.8-155.7 106.2-266.1 251.6-325 156.8-63.6 330.1-21.4 444 103a391.4 391.4 0 0 1 101 220.4c1.7 14.1 1.6 14.2-13 14.2h-103.7Z" style="fill:#eb2127" transform="translate(-337 -276)"/><path d="M456.1 572.6c-64.1.6-118.5-51.9-119-114.9-.5-67.2 51.3-121 117-121.4a119 119 0 0 1 119.4 117.2 118.7 118.7 0 0 1-117.4 119Z" class="cls-2"/><path d="M456.1 396.6a57.3 57.3 0 0 1 57.1 59.4 57.5 57.5 0 0 1-59 56.5 57.7 57.7 0 0 1-57.3-58.3c.4-32.8 26.3-58 59.2-57.6Z" class="cls-1"/></svg>